<svg xmlns="http://www.w3.org/2000/svg" xmlns:xlink="http://www.w3.org/1999/xlink" width="1080" zoomAndPan="magnify" viewBox="0 0 810 809.999993" height="1080" preserveAspectRatio="xMidYMid meet" version="1.0"><defs><clipPath id="fc1326171f"><path d="M 81 150.511719 L 729 150.511719 L 729 659.761719 L 81 659.761719 Z M 81 150.511719 " clip-rule="nonzero"/></clipPath></defs><g clip-path="url(#fc1326171f)"><path fill="#414b3b" d="M 637.734375 196.808594 L 172.265625 196.808594 L 390.894531 365.078125 C 399.210938 371.480469 410.789062 371.480469 419.105469 365.078125 Z M 127.378906 220.671875 L 127.378906 613.46875 L 682.621094 613.46875 L 682.621094 220.671875 L 447.316406 401.773438 C 422.367188 420.972656 387.628906 420.972656 362.679688 401.773438 Z M 81.109375 196.808594 C 81.109375 171.238281 101.828125 150.511719 127.378906 150.511719 L 682.621094 150.511719 C 708.175781 150.511719 728.890625 171.238281 728.890625 196.808594 L 728.890625 613.46875 C 728.890625 639.035156 708.175781 659.761719 682.621094 659.761719 L 127.378906 659.761719 C 101.828125 659.761719 81.109375 639.035156 81.109375 613.46875 Z M 81.109375 196.808594 " fill-opacity="1" fill-rule="evenodd"/></g></svg>