<svg xmlns="http://www.w3.org/2000/svg" xmlns:xlink="http://www.w3.org/1999/xlink" width="1080" zoomAndPan="magnify" viewBox="0 0 810 809.999993" height="1080" preserveAspectRatio="xMidYMid meet" version="1.0"><defs><clipPath id="af4bb94511"><path d="M 81 93.839844 L 716.25 93.839844 L 716.25 729.089844 L 81 729.089844 Z M 81 93.839844 " clip-rule="nonzero"/></clipPath></defs><g clip-path="url(#af4bb94511)"><path fill="#414b3b" d="M 398.625 151.074219 C 483.441406 151.074219 493.492188 151.394531 526.964844 152.921875 C 557.933594 154.335938 574.757812 159.511719 585.949219 163.859375 C 600.761719 169.621094 611.359375 176.507812 622.476562 187.621094 C 633.59375 198.734375 640.464844 209.316406 646.222656 224.140625 C 650.589844 235.332031 655.753906 252.152344 657.167969 283.117188 C 658.707031 316.613281 659.027344 326.660156 659.027344 411.464844 C 659.027344 496.28125 658.707031 506.332031 657.167969 539.808594 C 655.753906 570.777344 650.589844 587.601562 646.222656 598.789062 C 640.464844 613.628906 633.59375 624.199219 622.476562 635.316406 C 611.359375 646.433594 600.761719 653.308594 585.949219 659.066406 C 574.757812 663.433594 557.933594 668.59375 526.964844 670.007812 C 493.492188 671.546875 483.441406 671.871094 398.625 671.871094 C 313.808594 671.871094 303.765625 671.546875 270.277344 670.007812 C 239.308594 668.59375 222.492188 663.433594 211.296875 659.066406 C 196.472656 653.308594 185.890625 646.433594 174.777344 635.316406 C 163.660156 624.199219 156.777344 613.628906 151.019531 598.789062 C 146.667969 587.601562 141.492188 570.777344 140.082031 539.808594 C 138.550781 506.332031 138.230469 496.28125 138.230469 411.464844 C 138.230469 326.660156 138.550781 316.613281 140.082031 283.121094 C 141.492188 252.152344 146.667969 235.332031 151.019531 224.140625 C 156.777344 209.316406 163.660156 198.734375 174.777344 187.621094 C 185.890625 176.507812 196.472656 169.621094 211.296875 163.859375 C 222.492188 159.511719 239.308594 154.335938 270.277344 152.921875 C 303.769531 151.394531 313.8125 151.074219 398.625 151.074219 M 398.625 93.839844 C 312.363281 93.839844 301.546875 94.207031 267.667969 95.753906 C 233.859375 97.296875 210.773438 102.664062 190.566406 110.515625 C 169.679688 118.632812 151.96875 129.496094 134.308594 147.152344 C 116.652344 164.8125 105.792969 182.523438 97.675781 203.410156 C 89.820312 223.613281 84.453125 246.703125 82.910156 280.511719 C 81.363281 314.386719 81 325.203125 81 411.46875 C 81 497.722656 81.363281 508.539062 82.910156 542.414062 C 84.453125 576.234375 89.820312 599.3125 97.675781 619.535156 C 105.792969 640.40625 116.652344 658.121094 134.308594 675.789062 C 151.964844 693.433594 169.679688 704.300781 190.566406 712.417969 C 210.769531 720.257812 233.859375 725.644531 267.667969 727.179688 C 301.542969 728.71875 312.363281 729.09375 398.625 729.09375 C 484.878906 729.09375 495.699219 728.71875 529.570312 727.179688 C 563.390625 725.644531 586.46875 720.257812 606.667969 712.417969 C 627.5625 704.300781 645.28125 693.433594 662.949219 675.789062 C 680.589844 658.121094 691.460938 640.40625 699.574219 619.535156 C 707.414062 599.3125 712.800781 576.234375 714.339844 542.414062 C 715.875 508.539062 716.25 497.722656 716.25 411.46875 C 716.25 325.203125 715.875 314.386719 714.339844 280.511719 C 712.800781 246.703125 707.414062 223.613281 699.574219 203.410156 C 691.460938 182.523438 680.589844 164.8125 662.949219 147.152344 C 645.28125 129.496094 627.5625 118.632812 606.667969 110.515625 C 586.46875 102.664062 563.390625 97.296875 529.570312 95.753906 C 495.699219 94.207031 484.878906 93.84375 398.625 93.84375 Z M 398.625 248.359375 C 308.542969 248.359375 235.519531 321.386719 235.519531 411.464844 C 235.519531 501.542969 308.542969 574.570312 398.625 574.570312 C 488.703125 574.570312 561.730469 501.542969 561.730469 411.464844 C 561.730469 321.386719 488.703125 248.359375 398.625 248.359375 Z M 398.625 517.351562 C 340.160156 517.351562 292.75 469.929688 292.75 411.464844 C 292.75 353.003906 340.160156 305.589844 398.625 305.589844 C 457.085938 305.589844 504.507812 353.003906 504.507812 411.464844 C 504.507812 469.929688 457.085938 517.351562 398.625 517.351562 Z M 606.296875 241.910156 C 606.296875 262.960938 589.226562 280.027344 568.183594 280.027344 C 547.113281 280.027344 530.066406 262.960938 530.066406 241.910156 C 530.066406 220.859375 547.113281 203.796875 568.183594 203.796875 C 589.226562 203.796875 606.296875 220.859375 606.296875 241.910156 Z M 606.296875 241.910156 " fill-opacity="1" fill-rule="nonzero"/></g></svg>