<svg xmlns="http://www.w3.org/2000/svg" xmlns:xlink="http://www.w3.org/1999/xlink" width="1080" zoomAndPan="magnify" viewBox="0 0 810 809.999993" height="1080" preserveAspectRatio="xMidYMid meet" version="1.0"><path fill="#fff9f3" d="M 405 139.378906 C 491.519531 139.378906 501.769531 139.710938 535.917969 141.265625 C 567.507812 142.710938 584.667969 147.988281 596.085938 152.425781 C 611.195312 158.300781 622.003906 165.324219 633.34375 176.660156 C 644.683594 188 651.695312 198.792969 657.566406 213.914062 C 662.023438 225.332031 667.289062 242.488281 668.730469 274.074219 C 670.300781 308.242188 670.628906 318.488281 670.628906 405 C 670.628906 491.519531 670.300781 501.769531 668.730469 535.917969 C 667.289062 567.507812 662.023438 584.667969 657.566406 596.085938 C 651.695312 611.222656 644.683594 622.003906 633.34375 633.34375 C 622.003906 644.683594 611.195312 651.695312 596.085938 657.566406 C 584.667969 662.023438 567.507812 667.289062 535.917969 668.730469 C 501.769531 670.300781 491.519531 670.628906 405 670.628906 C 318.480469 670.628906 308.234375 670.300781 274.074219 668.730469 C 242.484375 667.289062 225.332031 662.023438 213.914062 657.566406 C 198.792969 651.695312 187.996094 644.683594 176.660156 633.34375 C 165.320312 622.003906 158.300781 611.222656 152.425781 596.085938 C 147.988281 584.667969 142.707031 567.507812 141.265625 535.917969 C 139.707031 501.769531 139.378906 491.519531 139.378906 405 C 139.378906 318.488281 139.707031 308.242188 141.265625 274.078125 C 142.707031 242.488281 147.988281 225.332031 152.425781 213.914062 C 158.300781 198.792969 165.320312 188 176.660156 176.660156 C 187.996094 165.324219 198.792969 158.300781 213.914062 152.425781 C 225.332031 147.988281 242.484375 142.710938 274.074219 141.265625 C 308.242188 139.710938 318.488281 139.378906 405 139.378906 M 405 81 C 317.007812 81 305.972656 81.371094 271.414062 82.949219 C 236.925781 84.523438 213.375 90 192.765625 98.011719 C 171.460938 106.289062 153.390625 117.367188 135.378906 135.382812 C 117.367188 153.394531 106.289062 171.460938 98.011719 192.765625 C 90 213.375 84.523438 236.929688 82.949219 271.414062 C 81.371094 305.972656 81 317.007812 81 405 C 81 492.988281 81.371094 504.023438 82.949219 538.574219 C 84.523438 573.074219 90 596.617188 98.007812 617.246094 C 106.289062 638.535156 117.367188 656.605469 135.378906 674.628906 C 153.390625 692.625 171.457031 703.714844 192.765625 711.988281 C 213.375 719.988281 236.925781 725.480469 271.414062 727.050781 C 305.972656 728.621094 317.003906 729 405 729 C 492.984375 729 504.019531 728.621094 538.574219 727.050781 C 573.074219 725.480469 596.613281 719.988281 617.21875 711.988281 C 638.53125 703.714844 656.605469 692.625 674.628906 674.628906 C 692.625 656.605469 703.710938 638.535156 711.988281 617.246094 C 719.988281 596.617188 725.480469 573.074219 727.050781 538.574219 C 728.617188 504.023438 729 492.988281 729 405 C 729 317.007812 728.621094 305.972656 727.050781 271.414062 C 725.480469 236.929688 719.988281 213.375 711.988281 192.765625 C 703.710938 171.460938 692.625 153.394531 674.628906 135.382812 C 656.605469 117.371094 638.53125 106.289062 617.21875 98.011719 C 596.613281 90 573.074219 84.523438 538.574219 82.949219 C 504.019531 81.375 492.984375 81 405 81 Z M 405 238.621094 C 313.109375 238.621094 238.621094 313.113281 238.621094 405 C 238.621094 496.882812 313.109375 571.378906 405 571.378906 C 496.882812 571.378906 571.378906 496.882812 571.378906 405 C 571.378906 313.113281 496.882812 238.621094 405 238.621094 Z M 405 513.007812 C 345.363281 513.007812 297 464.636719 297 405 C 297 345.363281 345.363281 297 405 297 C 464.636719 297 513.007812 345.363281 513.007812 405 C 513.007812 464.636719 464.636719 513.007812 405 513.007812 Z M 616.839844 232.039062 C 616.839844 253.515625 599.425781 270.921875 577.960938 270.921875 C 556.46875 270.921875 539.082031 253.515625 539.082031 232.039062 C 539.082031 210.566406 556.46875 193.164062 577.960938 193.164062 C 599.425781 193.164062 616.839844 210.566406 616.839844 232.039062 Z M 616.839844 232.039062 " fill-opacity="1" fill-rule="nonzero"/></svg>