<svg xmlns="http://www.w3.org/2000/svg" xmlns:xlink="http://www.w3.org/1999/xlink" width="1080" zoomAndPan="magnify" viewBox="0 0 810 809.999993" height="1080" preserveAspectRatio="xMidYMid meet" version="1.0"><defs><clipPath id="c4538c24fa"><path d="M 81 81 L 237 81 L 237 729 L 81 729 Z M 81 81 " clip-rule="nonzero"/></clipPath></defs><g clip-path="url(#c4538c24fa)"><path fill="#414b3b" d="M 91.582031 296.339844 L 225.996094 296.339844 L 225.996094 728.148438 L 91.582031 728.148438 Z M 158.835938 81.679688 C 201.808594 81.679688 236.652344 116.574219 236.652344 159.476562 C 236.652344 202.425781 201.808594 237.3125 158.835938 237.3125 C 115.707031 237.3125 80.929688 202.425781 80.929688 159.476562 C 80.929688 116.574219 115.707031 81.679688 158.835938 81.679688 " fill-opacity="1" fill-rule="nonzero"/></g><path fill="#414b3b" d="M 310.257812 296.339844 L 438.980469 296.339844 L 438.980469 355.359375 L 440.808594 355.359375 C 458.710938 321.382812 502.542969 285.609375 567.875 285.609375 C 703.746094 285.609375 728.878906 375 728.878906 491.296875 L 728.878906 728.148438 L 594.714844 728.148438 L 594.714844 518.207031 C 594.714844 468.085938 593.726562 403.664062 524.917969 403.664062 C 455.03125 403.664062 444.375 458.210938 444.375 514.503906 L 444.375 728.148438 L 310.257812 728.148438 Z M 310.257812 296.339844 " fill-opacity="1" fill-rule="nonzero"/></svg>