<svg xmlns="http://www.w3.org/2000/svg" xmlns:xlink="http://www.w3.org/1999/xlink" width="1080" zoomAndPan="magnify" viewBox="0 0 810 809.999993" height="1080" preserveAspectRatio="xMidYMid meet" version="1.0"><defs><clipPath id="572a3afbb9"><path d="M 92.546875 81 L 246 81 L 246 717 L 92.546875 717 Z M 92.546875 81 " clip-rule="nonzero"/></clipPath><clipPath id="69d7bd458e"><path d="M 317 282 L 729.296875 282 L 729.296875 717 L 317 717 Z M 317 282 " clip-rule="nonzero"/></clipPath></defs><g clip-path="url(#572a3afbb9)"><path fill="#fff9f3" d="M 102.949219 292.601562 L 235.027344 292.601562 L 235.027344 716.914062 L 102.949219 716.914062 Z M 169.03125 81.667969 C 211.257812 81.667969 245.496094 115.957031 245.496094 158.117188 C 245.496094 200.320312 211.257812 234.597656 169.03125 234.597656 C 126.652344 234.597656 92.476562 200.316406 92.476562 158.117188 C 92.476562 115.957031 126.652344 81.667969 169.03125 81.667969 " fill-opacity="1" fill-rule="nonzero"/></g><g clip-path="url(#69d7bd458e)"><path fill="#fff9f3" d="M 317.828125 292.601562 L 444.316406 292.601562 L 444.316406 350.59375 L 446.109375 350.59375 C 463.703125 317.210938 506.773438 282.054688 570.96875 282.054688 C 704.480469 282.054688 729.179688 369.894531 729.179688 484.171875 L 729.179688 716.914062 L 597.34375 716.914062 L 597.34375 510.617188 C 597.34375 461.363281 596.371094 398.0625 528.757812 398.0625 C 460.085938 398.0625 449.613281 451.660156 449.613281 506.980469 L 449.613281 716.914062 L 317.828125 716.914062 Z M 317.828125 292.601562 " fill-opacity="1" fill-rule="nonzero"/></g></svg>