<svg xmlns="http://www.w3.org/2000/svg" xmlns:xlink="http://www.w3.org/1999/xlink" width="1080" zoomAndPan="magnify" viewBox="0 0 810 809.999993" height="1080" preserveAspectRatio="xMidYMid meet" version="1.0"><defs><filter x="0%" y="0%" width="100%" height="100%" id="75e4121a79"><feColorMatrix values="0 0 0 0 1 0 0 0 0 1 0 0 0 0 1 0 0 0 1 0" color-interpolation-filters="sRGB"/></filter><clipPath id="d06faa4969"><path d="M 54.753906 398.429688 L 753 398.429688 L 753 635.429688 L 54.753906 635.429688 Z M 54.753906 398.429688 " clip-rule="nonzero"/></clipPath><clipPath id="523ead7d7d"><path d="M 54.753906 174.351562 L 753 174.351562 L 753 322.851562 L 54.753906 322.851562 Z M 54.753906 174.351562 " clip-rule="nonzero"/></clipPath><mask id="a1939a7279"><g filter="url(#75e4121a79)"><rect x="-81" width="972" fill="#000000" y="-80.999999" height="971.999992" fill-opacity="0.498"/></g></mask><clipPath id="071b6057d0"><path d="M 0.433594 370.410156 L 658 370.410156 L 658 593.910156 L 0.433594 593.910156 Z M 0.433594 370.410156 " clip-rule="nonzero"/></clipPath><clipPath id="301d5342ec"><rect x="0" width="660" y="0" height="660"/></clipPath><mask id="b99e1d2c6d"><g filter="url(#75e4121a79)"><rect x="-81" width="972" fill="#000000" y="-80.999999" height="971.999992" fill-opacity="0.498"/></g></mask><clipPath id="b356316587"><path d="M 0.433594 159.320312 L 658 159.320312 L 658 298.820312 L 0.433594 298.820312 Z M 0.433594 159.320312 " clip-rule="nonzero"/></clipPath><clipPath id="55f5a5570d"><rect x="0" width="660" y="0" height="660"/></clipPath><clipPath id="b182b1c2d0"><path d="M 47.050781 347.585938 L 71.453125 347.585938 L 71.453125 371.988281 L 47.050781 371.988281 Z M 47.050781 347.585938 " clip-rule="nonzero"/></clipPath><clipPath id="a5657451ad"><path d="M 59.25 347.585938 C 52.511719 347.585938 47.050781 353.046875 47.050781 359.785156 C 47.050781 366.523438 52.511719 371.988281 59.25 371.988281 C 65.988281 371.988281 71.453125 366.523438 71.453125 359.785156 C 71.453125 353.046875 65.988281 347.585938 59.25 347.585938 " clip-rule="nonzero"/></clipPath><mask id="844624912b"><g filter="url(#75e4121a79)"><rect x="-81" width="972" fill="#000000" y="-80.999999" height="971.999992" fill-opacity="0.4667"/></g></mask><clipPath id="54ec70b20b"><path d="M 0.230469 0.585938 L 24.636719 0.585938 L 24.636719 24.988281 L 0.230469 24.988281 Z M 0.230469 0.585938 " clip-rule="nonzero"/></clipPath><clipPath id="2256d773df"><path d="M 12.433594 0.585938 C 5.695312 0.585938 0.230469 6.046875 0.230469 12.785156 C 0.230469 19.523438 5.695312 24.988281 12.433594 24.988281 C 19.171875 24.988281 24.636719 19.523438 24.636719 12.785156 C 24.636719 6.046875 19.171875 0.585938 12.433594 0.585938 " clip-rule="nonzero"/></clipPath><clipPath id="e1453625e5"><rect x="0" width="25" y="0" height="25"/></clipPath><clipPath id="9547e304e9"><path d="M 738.546875 347.585938 L 762.949219 347.585938 L 762.949219 371.988281 L 738.546875 371.988281 Z M 738.546875 347.585938 " clip-rule="nonzero"/></clipPath><clipPath id="a9e44858bb"><path d="M 750.75 347.585938 C 744.011719 347.585938 738.546875 353.046875 738.546875 359.785156 C 738.546875 366.523438 744.011719 371.988281 750.75 371.988281 C 757.488281 371.988281 762.949219 366.523438 762.949219 359.785156 C 762.949219 353.046875 757.488281 347.585938 750.75 347.585938 " clip-rule="nonzero"/></clipPath><mask id="6d04d69abd"><g filter="url(#75e4121a79)"><rect x="-81" width="972" fill="#000000" y="-80.999999" height="971.999992" fill-opacity="0.4667"/></g></mask><clipPath id="98d1b5f3ec"><path d="M 0.355469 0.585938 L 24.757812 0.585938 L 24.757812 24.988281 L 0.355469 24.988281 Z M 0.355469 0.585938 " clip-rule="nonzero"/></clipPath><clipPath id="50240275cb"><path d="M 12.558594 0.585938 C 5.816406 0.585938 0.355469 6.046875 0.355469 12.785156 C 0.355469 19.523438 5.816406 24.988281 12.558594 24.988281 C 19.296875 24.988281 24.757812 19.523438 24.757812 12.785156 C 24.757812 6.046875 19.296875 0.585938 12.558594 0.585938 " clip-rule="nonzero"/></clipPath><clipPath id="dd18cb8f33"><rect x="0" width="25" y="0" height="25"/></clipPath><clipPath id="575189a7c0"><path d="M 363 216.164062 L 446 216.164062 L 446 594.164062 L 363 594.164062 Z M 363 216.164062 " clip-rule="nonzero"/></clipPath><clipPath id="25c4dffcd6"><path d="M 445 216.164062 L 609.992188 216.164062 L 609.992188 479 L 445 479 Z M 445 216.164062 " clip-rule="nonzero"/></clipPath><clipPath id="44f4a1181e"><path d="M 199.742188 216.164062 L 364 216.164062 L 364 479 L 199.742188 479 Z M 199.742188 216.164062 " clip-rule="nonzero"/></clipPath></defs><g clip-path="url(#d06faa4969)"><path fill="#8ca87c" d="M 403.761719 703.867188 C 211.417969 703.867188 54.753906 547.203125 54.753906 354.621094 C 54.753906 162.042969 211.417969 5.617188 403.761719 5.617188 C 596.105469 5.617188 752.769531 162.277344 752.769531 354.621094 C 753.003906 547.203125 596.339844 703.867188 403.761719 703.867188 Z M 403.761719 11.523438 C 214.488281 11.523438 60.664062 165.351562 60.664062 354.621094 C 60.664062 543.894531 214.726562 697.957031 403.761719 697.957031 C 592.796875 697.957031 747.097656 543.894531 747.097656 354.621094 C 747.097656 165.351562 593.035156 11.523438 403.761719 11.523438 Z M 403.761719 11.523438 " fill-opacity="1" fill-rule="nonzero"/></g><g clip-path="url(#523ead7d7d)"><path fill="#8ca87c" d="M 403.761719 703.867188 C 211.417969 703.867188 54.753906 547.203125 54.753906 354.621094 C 54.753906 162.042969 211.417969 5.617188 403.761719 5.617188 C 596.105469 5.617188 752.769531 162.277344 752.769531 354.621094 C 753.003906 547.203125 596.339844 703.867188 403.761719 703.867188 Z M 403.761719 11.523438 C 214.488281 11.523438 60.664062 165.351562 60.664062 354.621094 C 60.664062 543.894531 214.726562 697.957031 403.761719 697.957031 C 592.796875 697.957031 747.097656 543.894531 747.097656 354.621094 C 747.097656 165.351562 593.035156 11.523438 403.761719 11.523438 Z M 403.761719 11.523438 " fill-opacity="1" fill-rule="nonzero"/></g><g mask="url(#a1939a7279)"><g transform="matrix(1, 0, 0, 1, 77, 26)"><g clip-path="url(#301d5342ec)"><g clip-path="url(#071b6057d0)"><path fill="#8ca87c" d="M 329.195312 658.113281 C 148.007812 658.113281 0.433594 510.539062 0.433594 329.128906 C 0.433594 147.71875 148.007812 0.363281 329.195312 0.363281 C 510.382812 0.363281 657.960938 147.941406 657.960938 329.128906 C 658.183594 510.539062 510.605469 658.113281 329.195312 658.113281 Z M 329.195312 5.929688 C 150.902344 5.929688 5.996094 150.835938 5.996094 329.128906 C 5.996094 507.421875 151.125 652.550781 329.195312 652.550781 C 507.269531 652.550781 652.617188 507.421875 652.617188 329.128906 C 652.617188 150.835938 507.492188 5.929688 329.195312 5.929688 Z M 329.195312 5.929688 " fill-opacity="1" fill-rule="nonzero"/></g></g></g></g><g mask="url(#b99e1d2c6d)"><g transform="matrix(1, 0, 0, 1, 77, 26)"><g clip-path="url(#55f5a5570d)"><g clip-path="url(#b356316587)"><path fill="#8ca87c" d="M 329.195312 658.113281 C 148.007812 658.113281 0.433594 510.539062 0.433594 329.128906 C 0.433594 147.71875 148.007812 0.363281 329.195312 0.363281 C 510.382812 0.363281 657.960938 147.941406 657.960938 329.128906 C 658.183594 510.539062 510.605469 658.113281 329.195312 658.113281 Z M 329.195312 5.929688 C 150.902344 5.929688 5.996094 150.835938 5.996094 329.128906 C 5.996094 507.421875 151.125 652.550781 329.195312 652.550781 C 507.269531 652.550781 652.617188 507.421875 652.617188 329.128906 C 652.617188 150.835938 507.492188 5.929688 329.195312 5.929688 Z M 329.195312 5.929688 " fill-opacity="1" fill-rule="nonzero"/></g></g></g></g><g clip-path="url(#b182b1c2d0)"><g clip-path="url(#a5657451ad)"><path fill="#8ca87c" d="M 47.050781 347.585938 L 71.453125 347.585938 L 71.453125 371.988281 L 47.050781 371.988281 Z M 47.050781 347.585938 " fill-opacity="1" fill-rule="nonzero"/></g></g><g mask="url(#844624912b)"><g transform="matrix(1, 0, 0, 1, 65, 347)"><g clip-path="url(#e1453625e5)"><g clip-path="url(#54ec70b20b)"><g clip-path="url(#2256d773df)"><path fill="#8ca87c" d="M 0.230469 0.585938 L 24.636719 0.585938 L 24.636719 24.988281 L 0.230469 24.988281 Z M 0.230469 0.585938 " fill-opacity="1" fill-rule="nonzero"/></g></g></g></g></g><g clip-path="url(#9547e304e9)"><g clip-path="url(#a9e44858bb)"><path fill="#8ca87c" d="M 738.546875 347.585938 L 762.949219 347.585938 L 762.949219 371.988281 L 738.546875 371.988281 Z M 738.546875 347.585938 " fill-opacity="1" fill-rule="nonzero"/></g></g><g mask="url(#6d04d69abd)"><g transform="matrix(1, 0, 0, 1, 723, 347)"><g clip-path="url(#dd18cb8f33)"><g clip-path="url(#98d1b5f3ec)"><g clip-path="url(#50240275cb)"><path fill="#8ca87c" d="M 0.355469 0.585938 L 24.757812 0.585938 L 24.757812 24.988281 L 0.355469 24.988281 Z M 0.355469 0.585938 " fill-opacity="1" fill-rule="nonzero"/></g></g></g></g></g><g clip-path="url(#575189a7c0)"><path fill="#414b3b" d="M 437.6875 577.726562 L 429.484375 577.726562 L 429.484375 232.601562 L 437.6875 232.601562 C 442.226562 232.601562 445.894531 228.917969 445.894531 224.382812 C 445.894531 219.847656 442.226562 216.164062 437.6875 216.164062 L 372.046875 216.164062 C 367.519531 216.164062 363.84375 219.847656 363.84375 224.382812 C 363.84375 228.917969 367.519531 232.601562 372.046875 232.601562 L 380.253906 232.601562 L 380.253906 577.726562 L 372.046875 577.726562 C 367.519531 577.726562 363.84375 581.398438 363.84375 585.945312 C 363.84375 590.488281 367.519531 594.160156 372.046875 594.160156 L 437.6875 594.160156 C 442.226562 594.160156 445.894531 590.488281 445.894531 585.945312 C 445.894531 581.398438 442.226562 577.726562 437.6875 577.726562 Z M 437.6875 577.726562 " fill-opacity="1" fill-rule="nonzero"/></g><g clip-path="url(#25c4dffcd6)"><path fill="#414b3b" d="M 601.722656 216.164062 C 601.722656 216.164062 601.679688 216.164062 601.671875 216.164062 C 601.664062 216.164062 601.664062 216.164062 601.664062 216.164062 C 529.476562 216.191406 519.738281 273.820312 519.738281 330.179688 C 519.738281 397.300781 499.957031 424.8125 445.894531 429.125 L 445.894531 478.503906 C 520.125 473.039062 560.761719 429.632812 560.761719 354.832031 C 560.761719 347.757812 560.359375 339.738281 559.925781 331.25 C 558.359375 299.925781 556.390625 260.949219 573.429688 243.003906 C 580.0625 236.011719 589.308594 232.609375 601.671875 232.601562 C 601.691406 232.601562 601.707031 232.601562 601.722656 232.601562 C 606.257812 232.601562 609.925781 228.917969 609.925781 224.382812 C 609.925781 219.847656 606.257812 216.164062 601.722656 216.164062 Z M 601.722656 216.164062 " fill-opacity="1" fill-rule="nonzero"/></g><g clip-path="url(#44f4a1181e)"><path fill="#414b3b" d="M 363.84375 429.125 C 309.78125 424.8125 289.996094 397.300781 289.996094 330.179688 C 289.996094 273.820312 280.257812 216.191406 208.070312 216.164062 C 208.046875 216.164062 208.03125 216.164062 208.011719 216.164062 C 207.964844 216.164062 207.914062 216.15625 207.847656 216.164062 C 203.394531 216.257812 199.808594 219.898438 199.808594 224.382812 C 199.808594 228.917969 203.484375 232.601562 208.011719 232.601562 C 208.023438 232.601562 208.03125 232.601562 208.046875 232.601562 C 208.046875 232.601562 208.054688 232.601562 208.0625 232.601562 C 220.4375 232.609375 229.675781 236.011719 236.304688 243.003906 C 253.339844 260.957031 251.378906 299.933594 249.800781 331.25 C 249.375 339.738281 248.972656 347.757812 248.972656 354.832031 C 248.972656 429.632812 289.613281 473.039062 363.84375 478.503906 Z M 363.84375 429.125 " fill-opacity="1" fill-rule="nonzero"/></g></svg>